# xmcd
#
# Track frame offsets:
# 150
# 12379
# 28508
# 40545
# 55512
# 66112
# 77863
# 89255
# 107735
# 123060
# 142199
# 158180
# 170221
# 183888
# 198197
#
# Disc length: 2727 seconds
#
#
# Revision: 0
# Processed by: cddbd v1.5.2PL0 Copyright (c) Steve Scherf et al.
# Submitted via: FreeRIP 2.945 
#
DISCID=be0aa50f
DTITLE=Corn Island Band - First Crop
DYEAR=2004
DGENRE=Bluegrass
TTITLE0=Cherokee After Dark
TTITLE1=Tennessee Blues
TTITLE2=Picture In A Tear
TTITLE3=Listen To The Music
TTITLE4=On MY Way Back To The Old Home
TTITLE5=Glide Path
TTITLE6=It's A Lonesome Feeling
TTITLE7=I Still Haven't Found What I'm Looking For
TTITLE8=He's In The Jailhouse Now
TTITLE9=Mr. Bojangles
TTITLE10=Blue Ridge Mountain Girl
TTITLE11=Soldiers Joy
TTITLE12=Pain And Misery
TTITLE13=Will This House Be Blessed
TTITLE14=Martha White
EXTD=
EXTT0=
EXTT1=
EXTT2=
EXTT3=
EXTT4=
EXTT5=
EXTT6=
EXTT7=
EXTT8=
EXTT9=
EXTT10=
EXTT11=
EXTT12=
EXTT13=
EXTT14=
PLAYORDER=
